IKresults-template
version=1
nRows=11
nColumns=31
inDegrees=yes

Units are S.I. units (second, meters, Newtons, ...). First line should follow naming scheme of "IK<condition>-<trial>" (e.g. IK15-3).
If the header above contains a line with 'inDegrees', this indicates whether rotational values are in degrees (yes) or radians (no).

endheader
time	gndpitch	gndroll	gndyaw	spine_tx	spine_ty	spine_tz	pitch2	roll2	yaw2	aux7jnt_r3	aux7jnt_r1	aux7jnt_r2	aux6jnt_r3	aux6jnt_r1	aux6jnt_r2	aux5jnt_r3	aux5jnt_r1	aux5jnt_r2	aux4jnt_r3	aux4jnt_r1	aux4jnt_r2	aux3jnt_r3	aux3jnt_r1	aux3jnt_r2	pitch1	roll1	yaw1	aux1jnt_r3	aux1jnt_r1	aux1jnt_r2
     10.00000000	   -104.19587600	     37.53312895	    179.52381750	      0.41464492	      0.79712911	     -0.70848213	    -12.37901172	     -1.01985312	      0.97727826	     -2.31487725	     -0.13971975	      0.18372829	     -2.72337832	     -0.16011705	      0.21402379	     -2.72337832	     -0.22028811	      0.21402379	     -2.04253374	     -0.22028811	      0.21402379	     -1.36168916	     -0.19989140	      0.09186415	    -13.26134018	     -2.82061555	      3.76544827	     -7.37330150	     -1.41030778	      0.41796556
     10.01000000	   -104.20159054	     37.55616680	    179.52341356	      0.41466404	      0.79713340	     -0.70851731	    -12.32318961	     -0.99877614	      0.98095126	     -2.30443850	     -0.13683221	      0.18441881	     -2.71109748	     -0.15680796	      0.21482817	     -2.71109748	     -0.21573549	      0.21482817	     -2.03332311	     -0.21573549	      0.21482817	     -1.35554874	     -0.19576031	      0.09220941	    -13.27225248	     -2.81208540	      3.75812557	     -7.37936873	     -1.40604270	      0.41715273
     10.02000000	   -104.19750845	     37.59873980	    179.52347322	      0.41469063	      0.79710737	     -0.70854992	    -12.35117990	     -0.05649151	      4.30123432	     -2.30967269	     -0.00773933	      0.80863195	     -2.71725533	     -0.00886917	      0.94196965	     -2.71725533	     -0.01220216	      0.94196965	     -2.03794150	     -0.01220216	      0.94196965	     -1.35862767	     -0.01107235	      0.40431598	    -13.41615553	     -2.44311432	     -2.15786412	     -7.45937878	     -1.22155716	     -0.23952337
     10.03000000	   -104.18913408	     37.60937235	    179.52248310	      0.41471344	      0.79708740	     -0.70854622	    -12.25307228	     -0.05364257	      4.27384365	     -2.29132655	     -0.00734903	      0.80348251	     -2.69567169	     -0.00842189	      0.93597110	     -2.69567169	     -0.01158679	      0.93597110	     -2.02175377	     -0.01158679	      0.93597110	     -1.34783584	     -0.01051395	      0.40174125	    -13.40862892	     -2.49321433	     -2.12735101	     -7.45519399	     -1.24660717	     -0.23613641
     10.04000000	   -104.14367782	     37.59498011	    179.52061758	      0.41469796	      0.79704682	     -0.70855210	    -12.00400963	     -0.78847764	      1.67237416	     -2.24475179	     -0.10802134	      0.31440630	     -2.64087799	     -0.12379108	      0.36624968	     -2.64087799	     -0.17031104	      0.36624968	     -1.98065849	     -0.17031104	      0.36624968	     -1.32043900	     -0.15454176	      0.15720315	    -13.29884140	     -2.73632680	      2.49820587	     -7.39415216	     -1.36816340	      0.27730138
     10.05000000	   -104.15842562	     37.67732144	    179.52040462	      0.41481306	      0.79706812	     -0.70863998	    -11.93143196	     -0.00023772	      4.21787290	     -2.23117976	     -0.00003257	      0.79296001	     -2.62491093	     -0.00003732	      0.92371351	     -2.62491093	     -0.00005135	      0.92371351	     -1.96868320	     -0.00005135	      0.92371351	     -1.31245547	     -0.00004659	      0.39648000	    -13.37821603	     -2.52069493	     -1.97260000	     -7.43828443	     -1.26034746	     -0.21895902
     10.06000000	   -104.12733925	     37.66585232	    179.51904333	      0.41483415	      0.79703257	     -0.70866212	    -11.70128723	     -0.82727000	      1.33807679	     -2.18814266	     -0.11333589	      0.25155841	     -2.57427917	     -0.12988148	      0.29303861	     -2.57427917	     -0.17869019	      0.29303861	     -1.93070938	     -0.17869019	      0.29303861	     -1.28713958	     -0.16214507	      0.12577920	    -13.23606783	     -2.74776735	      3.21835903	     -7.35925007	     -1.37388367	      0.35723854
     10.07000000	   -104.12955386	     37.64570198	    179.51560200	      0.41480457	      0.79710977	     -0.70859605	    -11.59263290	     -0.95119521	      0.64172168	     -2.16782428	     -0.13031363	      0.12064366	     -2.55037525	     -0.14933775	      0.14053695	     -2.55037525	     -0.20545801	      0.14053695	     -1.91278144	     -0.20545801	      0.14053695	     -1.27518763	     -0.18643444	      0.06032183	    -13.25928799	     -2.96021360	      4.39691415	     -7.37216047	     -1.48010680	      0.48805840
     10.08000000	   -104.12095309	     37.63779595	    179.52030365	      0.41480637	      0.79705382	     -0.70858530	    -11.63627008	     -0.94209077	      0.84729689	     -2.17598444	     -0.12906632	      0.15929180	     -2.55997542	     -0.14790835	      0.18555789	     -2.55997542	     -0.20349145	      0.18555789	     -1.91998156	     -0.20349145	      0.18555789	     -1.27998771	     -0.18464996	      0.07964590	    -13.20334164	     -2.88429383	      4.02190291	     -7.34105432	     -1.44214692	      0.44643208
     10.09000000	   -104.11991661	     37.64249627	    179.52296314	      0.41481975	      0.79707171	     -0.70861097	    -11.63274989	     -0.89586880	      1.11032961	     -2.17532616	     -0.12273392	      0.20874194	     -2.55920098	     -0.14065150	      0.24316201	     -2.55920098	     -0.19350752	      0.24316201	     -1.91940073	     -0.19350752	      0.24316201	     -1.27960049	     -0.17559045	      0.10437097	    -13.22173099	     -2.80384367	      3.58785324	     -7.35127879	     -1.40192183	      0.39825247
     10.10000000	   -103.96061767	     37.75434230	    179.50485564	      0.41486604	      0.79671856	     -0.70884847	    -11.47523168	     -0.82737763	      0.89526923	     -2.14587023	     -0.11335064	      0.16831059	     -2.52454702	     -0.12989838	      0.19606382	     -2.52454702	     -0.17871344	      0.19606382	     -1.89341027	     -0.17871344	      0.19606382	     -1.26227351	     -0.16216617	      0.08415530	    -13.31687379	     -2.88453603	      3.86919220	     -7.40417816	     -1.44226801	      0.42948115
